<svg xmlns="http://www.w3.org/2000/svg" viewBox="0 0 120 130" fill="none">
  <!-- Shield body -->
  <path d="M60 6 L106 24 L106 68 C106 96 86 116 60 124 C34 116 14 96 14 68 L14 24 Z" fill="#166534"/>
  <!-- Inner shield cavity -->
  <path d="M60 18 L96 33 L96 69 C96 91 79 108 60 115 C41 108 24 91 24 69 L24 33 Z" fill="#15803d"/>
  <!-- "i" dot (white circle) -->
  <circle cx="48" cy="52" r="8" fill="white"/>
  <!-- "i" stem -->
  <rect x="44" y="64" width="8" height="32" rx="4" fill="white"/>
  <!-- "S" curve -->
  <path d="M63 50 C63 50 82 47 82 60 C82 73 62 73 62 86 C62 99 82 97 82 97"
        stroke="white" stroke-width="7.5" stroke-linecap="round" fill="none"/>
</svg>
